<?xml version="1.0" standalone="no"?>
<!DOCTYPE svg PUBLIC "-//W3C//DTD SVG 20010904//EN"  "http://www.w3.org/TR/2001/REC-SVG-20010904/DTD/svg10.dtd">
<svg version="1.0" xmlns="http://www.w3.org/2000/svg"
     width="336.000000pt" height="80.000000pt" viewBox="0 0 336.000000 80.000000"
     preserveAspectRatio="xMidYMid meet">

    <g transform="translate(0.000000,80.000000) scale(0.100000,-0.100000)"
       fill="#000000" stroke="none">
        <path d="M0 400 l0 -400 1680 0 1680 0 0 400 0 400 -1680 0 -1680 0 0 -400z
m654 100 c27 -76 52 -137 56 -135 4 2 20 43 36 90 l29 85 52 0 c50 0 52 -1 44
-22 -5 -13 -41 -106 -81 -208 -39 -102 -75 -189 -79 -193 -4 -4 -52 106 -105
245 -54 139 -100 259 -103 266 -4 9 10 12 48 12 l54 0 49 -140z m696 -80 l0
-220 30 0 c29 0 30 -2 30 -45 l0 -45 -110 0 -110 0 0 45 c0 43 1 45 30 45 l30
0 0 220 0 220 50 0 50 0 0 -220z m770 176 l0 -43 -95 -6 c-108 -6 -146 -22
-182 -77 -29 -43 -31 -129 -4 -180 23 -45 84 -80 139 -80 l42 0 0 65 0 65 -50
0 -50 0 0 50 0 50 100 0 100 0 0 -165 0 -165 -77 0 c-224 1 -323 82 -323 265
0 181 97 264 308 265 l92 0 0 -44z m720 0 l0 -43 -95 -6 c-156 -9 -205 -50
-205 -173 0 -47 5 -69 23 -94 29 -43 81 -70 134 -70 l43 0 0 64 0 65 -52 3
-53 3 -3 48 -3 47 105 0 106 0 0 -165 0 -165 -75 0 c-87 0 -165 15 -218 42
-84 42 -129 157 -109 276 24 146 120 211 310 212 l92 0 0 -44z"/>
    </g>
</svg>